<svg width="54" height="67" viewBox="0 0 54 67" fill="none" xmlns="http://www.w3.org/2000/svg">
<g clip-path="url(#clip0_9_31)">
<path d="M16.7078 55.9138C13.3856 52.9486 12.4158 46.7184 13.7999 42.2047C16.1998 45.0505 19.5251 45.952 22.9695 46.4608C28.2868 47.2461 33.5089 46.9524 38.4484 44.5793C39.0135 44.3077 39.5357 43.9464 40.1532 43.5805C40.6167 44.8935 40.7373 46.219 40.5754 47.568C40.1817 50.8536 38.5072 53.3915 35.8437 55.3154C34.7787 56.0849 33.6518 56.7728 32.5518 57.4985C29.1725 59.7285 28.2582 62.3435 29.5281 66.1473C29.5582 66.2399 29.5852 66.3326 29.6535 66.5587C27.9281 65.8049 26.6678 64.7071 25.7075 63.2638C24.6933 61.7404 24.2107 60.0552 24.1853 58.2319C24.1726 57.3445 24.1726 56.4494 24.0504 55.5745C23.752 53.4418 22.7266 52.4869 20.795 52.4319C18.8125 52.3754 17.2443 53.5722 16.8284 55.4567C16.7967 55.6013 16.7506 55.7442 16.7046 55.9122L16.7078 55.9138Z" fill="black"/>
<path d="M0 43.5866C0 43.5866 9.08392 39.219 18.1932 39.219L25.0613 18.24C25.3184 17.2254 26.0692 16.536 26.9168 16.536C27.7644 16.536 28.5152 17.2254 28.7723 18.24L35.6403 39.219C46.429 39.219 53.8335 43.5866 53.8335 43.5866C53.8335 43.5866 38.4038 2.09978 38.3736 2.01655C37.9308 0.789971 37.1832 0 36.1753 0H17.6599C16.652 0 15.9345 0.789971 15.4615 2.01655C15.4281 2.09821 0 43.5866 0 43.5866Z" fill="black"/>
</g>
<defs>
<clipPath id="clip0_9_31">
<rect width="54" height="67" fill="white"/>
</clipPath>
</defs>
</svg>
