<svg width="62" height="46" viewBox="0 0 62 46" fill="none" xmlns="http://www.w3.org/2000/svg">
<path d="M61.2491 30.2887C60.5705 25.7996 57.8124 22.0306 49.6438 18.5142C46.8064 17.13 43.6429 16.1388 42.7001 13.8567C42.3652 12.5287 42.3211 11.7805 42.5326 10.9762C43.1407 8.36687 46.075 7.55322 48.4013 8.30141C49.8994 8.83449 51.3181 10.0597 52.1728 12.0143C56.1734 9.26479 56.1646 9.28341 58.958 7.39433C57.9358 5.71091 57.3895 4.93457 56.7198 4.21454C54.3141 1.36208 51.0361 -0.106243 45.793 0.00598544C44.8854 0.127566 43.9691 0.258405 43.0613 0.380079C40.4443 1.0815 37.9505 2.54047 36.4877 4.49511C32.0994 9.77917 33.3507 19.0285 38.6907 22.835C43.9513 27.0249 51.6794 27.9788 52.6663 31.8974C53.6268 36.6952 49.3443 38.2476 45.0881 37.6959C41.951 37.0038 40.2064 35.311 38.3206 32.2341C34.8488 34.3664 34.8488 34.3664 31.28 36.5455C32.1259 38.5095 33.0158 39.398 34.4346 41.1001C41.1493 48.3295 57.9534 47.9741 60.9672 37.0319C61.0904 36.6577 61.9012 34.1512 61.2491 30.2887ZM26.5303 0.585737H17.8594C17.8594 8.53522 17.8242 16.4286 17.8242 24.3781C17.8242 29.4377 18.071 34.0764 17.2955 35.498C16.0266 38.2942 12.7398 37.9483 11.2418 37.4058C9.71731 36.6108 8.94186 35.4792 8.04305 33.88C7.79632 33.4218 7.61127 33.0664 7.5495 33.0383C5.19682 34.5628 2.85277 36.0964 0.5 37.621C1.67207 40.1741 3.39911 42.3907 5.61089 43.8308C8.91534 45.9351 13.3565 46.5804 18.0005 45.4488C21.0229 44.5135 23.6312 42.5777 24.997 39.6317C26.9709 35.7692 26.5479 31.093 26.5303 25.9212C26.5743 17.4854 26.5303 9.0496 26.5303 0.585737Z" fill="black"/>
</svg>
