<svg width="60" height="67" viewBox="0 0 60 67" fill="none" xmlns="http://www.w3.org/2000/svg">
<g clip-path="url(#clip0_9_49)">
<path d="M29.6783 67C28.7614 67 27.9057 66.7546 27.111 66.325L18.9812 61.4775C17.7586 60.8025 18.37 60.5571 18.7367 60.4343C20.3871 59.882 20.6927 59.7593 22.4043 58.7776C22.5876 58.6548 22.8322 58.7162 23.0156 58.839L29.2504 62.582C29.4949 62.7047 29.8006 62.7047 29.9839 62.582L54.3733 48.4075C54.6178 48.2848 54.74 48.0393 54.74 47.7326V19.4449C54.74 19.1382 54.6178 18.8927 54.3733 18.77L29.9839 4.65689C29.7395 4.53417 29.4338 4.53417 29.2504 4.65689L4.86104 18.77C4.61654 18.8927 4.49428 19.1995 4.49428 19.4449V47.7326C4.49428 47.978 4.61654 48.2848 4.86104 48.4075L11.5238 52.2733C15.1302 54.1141 17.3919 51.9665 17.3919 49.8188V21.8994C17.3919 21.5312 17.6976 21.1631 18.1254 21.1631H21.2429C21.6096 21.1631 21.9764 21.4698 21.9764 21.8994V49.8188C21.9764 54.6664 19.348 57.489 14.7635 57.489C13.3576 57.489 12.2573 57.489 9.13986 55.9549L2.72163 52.2733C1.13234 51.3529 0.154325 49.6348 0.154325 47.7939V19.5063C0.154325 17.6655 1.13234 15.9474 2.72163 15.0269L27.111 0.852483C28.6392 -0.00657302 30.7175 -0.00657302 32.2456 0.852483L56.635 15.0269C58.2243 15.9474 59.2023 17.6655 59.2023 19.5063V47.7939C59.2023 49.6348 58.2243 51.3529 56.635 52.2733L32.2456 66.4477C31.5121 66.7545 30.5952 67 29.6783 67Z" fill="black"/>
<path d="M37.2578 47.5485C26.5607 47.5485 24.3602 42.6396 24.3602 38.467C24.3602 38.0988 24.6657 37.7306 25.0937 37.7306H28.2723C28.639 37.7306 28.9446 37.9761 28.9446 38.3443C29.4336 41.5964 30.8395 43.1918 37.3189 43.1918C42.4536 43.1918 44.654 42.0259 44.654 39.2646C44.654 37.6693 44.0428 36.5034 36.0352 35.7057C29.3725 35.0307 25.2159 33.5581 25.2159 28.2196C25.2159 23.2493 29.3725 20.3041 36.3409 20.3041C44.1651 20.3041 48.016 23.0039 48.505 28.8946C48.505 29.0787 48.4439 29.2628 48.3216 29.4468C48.1994 29.5696 48.016 29.6923 47.8326 29.6923H44.5929C44.2873 29.6923 43.9817 29.4468 43.9205 29.1401C43.1871 25.7651 41.2921 24.6607 36.2798 24.6607C30.6561 24.6607 29.9838 26.6242 29.9838 28.0969C29.9838 29.8764 30.7784 30.4286 38.3581 31.4105C45.8766 32.3922 49.4219 33.8035 49.4219 39.0806C49.4219 44.4804 44.9597 47.5485 37.2578 47.5485Z" fill="black"/>
</g>
<defs>
<clipPath id="clip0_9_49">
<rect width="60" height="67" fill="white"/>
</clipPath>
</defs>
</svg>
