<svg width="76" height="68" viewBox="0 0 76 68" fill="none" xmlns="http://www.w3.org/2000/svg">
<g clip-path="url(#clip0_9_43)">
<path d="M37.4769 39.95C40.9747 39.95 43.8102 37.0958 43.8102 33.575C43.8102 30.0542 40.9747 27.2 37.4769 27.2C33.9791 27.2 31.1436 30.0542 31.1436 33.575C31.1436 37.0958 33.9791 39.95 37.4769 39.95Z" fill="black"/>
<path d="M37.5457 46.8866C56.4161 46.8866 71.7136 41.0127 71.7136 33.767C71.7136 26.5213 56.4161 20.6475 37.5457 20.6475C18.6753 20.6475 3.37778 26.5213 3.37778 33.767C3.37778 41.0127 18.6753 46.8866 37.5457 46.8866Z" stroke="black" stroke-width="5"/>
<path d="M26.2476 40.3268C35.6828 56.7613 48.3899 67.1471 54.6297 63.5243C60.8694 59.9014 58.279 43.6417 48.8438 27.2072C39.4086 10.7728 26.7015 0.386909 20.4617 4.00977C14.222 7.63263 16.8124 23.8923 26.2476 40.3268Z" stroke="black" stroke-width="5"/>
<path d="M26.2476 27.2072C16.8124 43.6417 14.222 59.9014 20.4617 63.5243C26.7015 67.1471 39.4086 56.7613 48.8438 40.3268C58.279 23.8923 60.8694 7.63263 54.6297 4.00977C48.3899 0.386909 35.6828 10.7728 26.2476 27.2072Z" stroke="black" stroke-width="5"/>
</g>
<defs>
<clipPath id="clip0_9_43">
<rect width="76" height="68" fill="white"/>
</clipPath>
</defs>
</svg>
